<?xml version="1.0" encoding="utf-8"?>
<svg version="1.1" xmlns:xlink="http://www.w3.org/1999/xlink" width="45px" height="49px" xmlns="http://www.w3.org/2000/svg">
  <g transform="matrix(1 0 0 1 -39 -16 )">
    <path d="M 22.55859375 28  C 26.93359375 28  29.12109375 29.53125  29.12109375 32.59375  C 29.12109375 34.1614583333333  28.955078125 35.95703125  28.623046875 37.98046875  C 28.017578125 41.8997395833333  27.48046875 44.7526041666667  27.01171875 46.5390625  C 26.58203125 48.1796875  25.09765625 49  22.55859375 49  C 20.01953125 49  18.53515625 48.1796875  18.10546875 46.5390625  C 17.63671875 44.7526041666667  17.099609375 41.8997395833333  16.494140625 37.98046875  C 16.162109375 35.9752604166667  15.99609375 34.1796875  15.99609375 32.59375  C 15.99609375 29.53125  18.18359375 28  22.55859375 28  Z M 43.0810546875 12.564453125  C 44.3603515625 15.2350260416667  45 18.046875  45 21  C 45 25.375  43.69140625 29.3307291666667  41.07421875 32.8671875  C 38.45703125 36.4036458333333  35.0390625 38.9557291666667  30.8203125 40.5234375  C 30.6640625 40.578125  30.517578125 40.55078125  30.380859375 40.44140625  C 30.244140625 40.33203125  30.185546875 40.1953125  30.205078125 40.03125  C 30.341796875 39.15625  30.439453125 38.5546875  30.498046875 38.2265625  C 30.576171875 37.6432291666667  30.634765625 37.21484375  30.673828125 36.94140625  C 30.693359375 36.77734375  30.78125 36.66796875  30.9375 36.61328125  C 34.04296875 35.13671875  36.5380859375 33.00390625  38.4228515625 30.21484375  C 40.3076171875 27.42578125  41.25 24.3541666666667  41.25 21  C 41.25 17.71875  40.361328125 14.7063802083333  38.583984375 11.962890625  C 36.806640625 9.21940104166666  34.39453125 7.08203125  31.34765625 5.55078125  C 28.30078125 4.01953125  25.009765625 3.34505208333333  21.474609375 3.52734375  C 19.052734375 3.65494791666666  16.73828125 4.2109375  14.53125 5.1953125  C 12.32421875 6.1796875  10.4345703125 7.46028645833333  8.8623046875 9.037109375  C 7.2900390625 10.6139322916667  6.0400390625 12.455078125  5.1123046875 14.560546875  C 4.1845703125 16.666015625  3.73046875 18.8580729166667  3.75 21.13671875  C 3.76953125 24.4908854166667  4.736328125 27.5579427083333  6.650390625 30.337890625  C 8.564453125 33.1178385416667  11.07421875 35.2278645833333  14.1796875 36.66796875  C 14.31640625 36.72265625  14.404296875 36.83203125  14.443359375 36.99609375  C 14.501953125 37.37890625  14.560546875 37.7890625  14.619140625 38.2265625  C 14.638671875 38.390625  14.6875 38.6868489583333  14.765625 39.115234375  C 14.84375 39.5436197916667  14.90234375 39.8671875  14.94140625 40.0859375  C 14.9609375 40.25  14.8974609375 40.38671875  14.7509765625 40.49609375  C 14.6044921875 40.60546875  14.453125 40.6236979166667  14.296875 40.55078125  C 11.40625 39.4934895833333  8.857421875 37.9485677083333  6.650390625 35.916015625  C 4.443359375 33.8834635416667  2.7490234375 31.4772135416667  1.5673828125 28.697265625  C 0.3857421875 25.9173177083333  -0.126953125 23.0052083333333  0.029296875 19.9609375  C 0.166015625 17.3541666666667  0.810546875 14.861328125  1.962890625 12.482421875  C 3.115234375 10.103515625  4.6240234375 8.03450520833333  6.4892578125 6.275390625  C 8.3544921875 4.51627604166666  10.5517578125 3.08072916666666  13.0810546875 1.96875  C 15.6103515625 0.856770833333329  18.271484375 0.218749999999999  21.064453125 0.0546874999999984  C 24.267578125 -0.12760416666667  27.3486328125 0.296223958333331  30.3076171875 1.326171875  C 33.2666015625 2.35611979166666  35.8154296875 3.81901041666666  37.9541015625 5.71484375  C 40.0927734375 7.61067708333333  41.8017578125 9.89388020833333  43.0810546875 12.564453125  Z M 27.2021484375 15.791015625  C 28.4814453125 16.9850260416667  29.12109375 18.4296875  29.12109375 20.125  C 29.12109375 21.8203125  28.4814453125 23.2649739583333  27.2021484375 24.458984375  C 25.9228515625 25.6529947916667  24.375 26.25  22.55859375 26.25  C 20.7421875 26.25  19.1943359375 25.6529947916667  17.9150390625 24.458984375  C 16.6357421875 23.2649739583333  15.99609375 21.8203125  15.99609375 20.125  C 15.99609375 18.4296875  16.6357421875 16.9850260416667  17.9150390625 15.791015625  C 19.1943359375 14.5970052083333  20.7421875 14  22.55859375 14  C 24.375 14  25.9228515625 14.5970052083333  27.2021484375 15.791015625  Z M 35.4345703125 13.794921875  C 36.8505859375 15.9915364583333  37.55859375 18.3932291666667  37.55859375 21  C 37.55859375 23.2239583333333  37.0361328125 25.306640625  35.9912109375 27.248046875  C 34.9462890625 29.189453125  33.515625 30.8072916666667  31.69921875 32.1015625  C 31.54296875 32.2109375  31.38671875 32.2291666666667  31.23046875 32.15625  C 31.07421875 32.0833333333333  30.9765625 31.9557291666667  30.9375 31.7734375  C 30.8203125 30.8255208333333  30.537109375 29.9869791666667  30.087890625 29.2578125  C 29.951171875 29.0755208333333  29.98046875 28.8932291666667  30.17578125 28.7109375  C 31.30859375 27.7265625  32.197265625 26.5690104166667  32.841796875 25.23828125  C 33.486328125 23.9075520833333  33.80859375 22.4947916666667  33.80859375 21  C 33.80859375 18.9765625  33.2373046875 17.1171875  32.0947265625 15.421875  C 30.9521484375 13.7265625  29.4140625 12.4368489583333  27.48046875 11.552734375  C 25.546875 10.6686197916667  23.4765625 10.3359375  21.26953125 10.5546875  C 18.671875 10.828125  16.435546875 11.8580729166667  14.560546875 13.64453125  C 12.685546875 15.4309895833333  11.62109375 17.5364583333333  11.3671875 19.9609375  C 11.171875 21.6380208333333  11.4013671875 23.2421875  12.0556640625 24.7734375  C 12.7099609375 26.3046875  13.671875 27.6171875  14.94140625 28.7109375  C 15.13671875 28.8932291666667  15.166015625 29.0755208333333  15.029296875 29.2578125  C 14.560546875 30.0052083333333  14.27734375 30.8528645833333  14.1796875 31.80078125  C 14.140625 31.96484375  14.04296875 32.0833333333333  13.88671875 32.15625  C 13.73046875 32.2291666666667  13.57421875 32.2109375  13.41796875 32.1015625  C 11.5625 30.7526041666667  10.1123046875 29.0846354166667  9.0673828125 27.09765625  C 8.0224609375 25.1106770833333  7.51953125 22.9778645833333  7.55859375 20.69921875  C 7.6171875 18.3111979166667  8.291015625 16.0872395833333  9.580078125 14.02734375  C 10.869140625 11.9674479166667  12.59765625 10.3131510416667  14.765625 9.064453125  C 16.93359375 7.81575520833333  19.287109375 7.13671875  21.826171875 7.02734375  C 24.638671875 6.89973958333333  27.255859375 7.44661458333333  29.677734375 8.66796875  C 32.099609375 9.88932291666666  34.0185546875 11.5983072916667  35.4345703125 13.794921875  Z " fill-rule="nonzero" fill="#014489" stroke="none" transform="matrix(1 0 0 1 39 16 )" />
  </g>
</svg>